<?xml version="1.0" encoding="utf-8"?>
<!-- Generator: Adobe Illustrator 19.0.0, SVG Export Plug-In . SVG Version: 6.00 Build 0)  -->
<svg version="1.1" id="图层_1" xmlns="http://www.w3.org/2000/svg" xmlns:xlink="http://www.w3.org/1999/xlink" x="0px" y="0px"
	 viewBox="0 0 357.5 385" style="enable-background:new 0 0 357.5 385;" xml:space="preserve">
<style type="text/css">
	.st0{fill:#FFFFFF;stroke:#898989;stroke-miterlimit:10;}
	.st1{fill:#9FA0A0;}
</style>
<rect id="XMLID_1_" x="25.2" y="30.4" class="st0" width="307.6" height="324.2"/>
<path id="XMLID_12_" class="st1" d="M175.1,195.6c-1.7-0.2-3.5-0.4-5.4-0.6c-1.9-0.2-4.4-0.4-7.4-0.5c-3.1-0.1-6.8-0.2-11.3-0.2
	c-4.5-0.1-10.1-0.1-16.8-0.1h-33.2c-1.3,8.6-3.4,16.1-6.4,22.5c-3,6.4-6.8,12.4-11.5,18.3c-1.9-2-3.8-3.5-5.9-4.5
	c-2-0.9-4.9-1.6-8.5-2.1c5-4.2,9.3-9.5,12.7-15.7c3.5-6.2,5.8-14.5,7.1-24.8c0.5-4.6,0.8-8.4,1.1-11.7c0.2-3.2,0.4-6,0.4-8.5
	c0-2.4-0.2-4.7-0.5-6.8c-0.3-2.1-0.8-4.3-1.4-6.5c2,0.3,4.3,0.6,6.8,0.8c2.5,0.2,5.4,0.4,8.7,0.5c3.3,0.1,7.2,0.2,11.7,0.2
	c4.5,0.1,9.8,0.1,15.9,0.1c6.6,0,12.3,0,17.1-0.1c4.8-0.1,8.9-0.2,12.2-0.2c3.4-0.1,6.2-0.2,8.5-0.5c2.3-0.2,4.4-0.5,6.2-0.8V195.6z
	 M151.3,303c-10.2,0.2-19,0.6-26.4,1.3c-7.4,0.7-13.3,1.5-17.9,2.5c0.3-1.4,0.5-3,0.7-4.7c0.2-1.7,0.2-3.6,0.2-5.7v-16.7
	c0-4.9-0.4-8.3-1.2-10.4c2.5,0.6,4.9,1.1,7.1,1.3c2.2,0.2,4.2,0.4,5.9,0.6c2.7,0.2,4.1,0.8,4.4,2c0.2,1.2-0.3,2.2-1.5,2.9
	c-1.3,0.8-2,1.6-2.2,2.6c-0.2,0.9-0.4,2-0.4,3.1v11.1l52.1-0.7V262c-12.2,0-23.2,0-33,0c-9.7,0-18.6,0.1-26.5,0.2
	c-7.9,0.2-15.2,0.3-21.9,0.5c-6.7,0.2-13.1,0.4-19.2,0.7V250c6.1,0.3,12.6,0.6,19.6,0.8c6.9,0.2,14.4,0.4,22.5,0.6
	c8.1,0.2,16.9,0.3,26.5,0.4c9.6,0.1,20.3,0.1,32,0.1v-19.1h-42.4c-2.4,3.1-4.6,6.1-6.7,8.8c-2.1,2.7-4.2,5.2-6.2,7.4
	c-2.5-2.2-4.7-3.8-6.6-4.9c-1.9-1.1-4.2-2-6.8-2.8c4.2-3,8-5.9,11.2-8.8c3.2-2.9,6.1-6,8.6-9.2c2.5-3.2,4.8-6.6,6.9-10.2
	c2.1-3.6,4.2-7.5,6.2-11.8c4.2,2.7,7.8,4.6,10.6,5.7c2.8,1.1,4.2,2.4,4.2,4c0,1.6-0.8,2.4-2.4,2.6c-1.4,0.2-3,0.9-4.8,2.4
	c-1.8,1.4-4,3.8-6.7,7.1h31.3c16,0,30-0.1,41.8-0.4c11.9-0.2,23-0.7,33.3-1.3v13.2c-9.4-0.6-19.2-1.1-29.3-1.3
	c-10.1-0.2-19.9-0.4-29.3-0.4v19.1c11.3,0,21.6,0,31-0.1c9.3-0.1,17.9-0.2,25.8-0.4c7.9-0.2,15.2-0.4,21.9-0.6
	c6.8-0.2,13.2-0.5,19.3-0.8v14.1c-6.1-0.3-12.6-0.6-19.3-0.9c-6.8-0.3-14.1-0.5-21.9-0.7c-7.9-0.2-16.5-0.3-25.8-0.4
	c-9.3-0.1-19.7-0.1-31-0.1V292l51.3-0.7c-0.2-7.4-0.4-12.8-0.7-16.4c-0.3-3.5-0.8-6.2-1.4-7.9c2.7,0.3,5.5,0.6,8.5,0.8
	c3,0.2,5.7,0.4,8.2,0.4c1.9,0,3.1,0.4,3.5,1.3c0.5,0.9,0,1.8-1.4,2.9c-1.7,1.3-2.8,2.4-3.3,3.5c-0.5,1.1-0.7,2.7-0.7,4.7v20
	c0,4.9,0.5,8.8,1.4,11.8h-14.1v-10.8L151.3,303z M127.1,120.5c-10.8,0-20.9,0.2-30.2,0.6c-9.3,0.4-16.8,1-22.6,1.8v-13.2
	c5.8,0.8,13.3,1.4,22.6,1.8c9.3,0.4,19.3,0.6,30.2,0.6c-0.2-5-0.3-9-0.5-12c-0.2-3-0.4-5.7-0.7-8.2c3,0.5,5.8,0.8,8.5,1.1
	c2.7,0.2,5,0.3,7.1,0.1c1.7-0.2,2.7,0.4,2.9,1.8c0.2,1.3-0.4,2.2-1.8,2.7c-0.8,0.3-1.5,1.2-2.2,2.7c-0.7,1.5-1.1,3-1.1,4.6v7.3
	c9.4,0,18.1-0.2,26-0.6c7.9-0.4,14.5-1,19.7-1.8v13.2c-5.2-0.8-11.7-1.4-19.7-1.8c-7.9-0.4-16.6-0.6-26-0.6v14.1
	c7.5,0,14.5-0.2,21-0.5c6.4-0.3,11.8-0.9,16-1.6v13.4c-5-0.8-11.5-1.4-19.6-1.8c-8-0.4-16.6-0.6-25.7-0.6c-9,0-17.4,0.2-25.4,0.6
	c-8,0.4-14.5,1-19.6,1.8v-13.4c4.7,0.8,10.6,1.3,17.8,1.6c7.1,0.3,14.9,0.5,23.2,0.5V120.5z M128.5,164.5h-26.4v20.7h26.4V164.5z
	 M163.8,164.5h-24.7v20.7h24.7V164.5z M192.8,165.7c-1.6,0-3.1,0-4.5,0.1c-1.4,0.1-2.7,0.2-4,0.4v-11.8c5.8,0.5,11.9,0.8,18.1,1.1
	c6.3,0.2,13.3,0.4,21.2,0.4c7.5,0,15-0.1,22.3-0.4c7.3-0.2,13.9-0.6,19.9-1.1c-4.7,8.8-9.7,16.4-15,22.7
	c-5.3,6.4-10.7,11.7-16.4,16.1c6.8,3.5,14.2,6.2,22.4,8.2c8.2,2,16.6,3.5,25.2,4.5c-2.2,2.7-3.9,5-5.1,7.1c-1.2,2-2.1,4.4-2.7,7.1
	c-3.1-0.6-6.8-1.6-11-3.1c-4.2-1.4-8.4-3-12.8-4.8c-4.4-1.8-8.7-3.8-13-6c-4.2-2.2-8.1-4.5-11.5-6.8c-5.5,3.9-12.3,7.5-20.5,10.7
	c-8.2,3.2-16.9,6.3-26.1,9.3c-1.7-4.7-4.9-9-9.7-12.7c6.6-0.8,14.1-2.2,22.4-4.2c8.3-2,16.5-5.1,24.5-9.2c-1.7-1.6-3.7-3.5-5.9-5.7
	c-2.2-2.2-4.4-4.5-6.5-6.9c-2.1-2.4-4.2-4.9-6.2-7.5C195.9,170.5,194.2,168.1,192.8,165.7z M253.8,100c-0.8,2.4-1.4,6.2-1.8,11.5
	c-0.4,5.3-0.4,10.9-0.1,16.7c0.2,1.7,0.5,3.2,1.2,4.4c0.6,1.2,1.9,2,3.9,2.6c2,0.6,4.8,0.7,8.5,0.4c3.7-0.3,8.7-1.1,15-2.4
	c-1.3,2.7-2.1,5-2.5,6.9c-0.4,2-0.5,4.1-0.4,6.5c-8.6,0.6-15.5,0.7-20.5,0.4c-5-0.4-8.8-1.3-11.4-2.8c-2.6-1.5-4.3-3.5-5.1-6
	c-0.8-2.5-1.2-5.6-1.2-9.2v-18.8h-30.9c0,9.4-1.1,17.3-3.3,23.7c-2.2,6.4-6.4,12.5-12.7,18.5c-2.4-1.6-4.5-2.8-6.4-3.7
	c-1.9-0.9-4.2-1.7-7.1-2.5c8.2-5,13.4-11.1,15.7-18.1c2.3-7.1,2.5-16.4,0.6-28c1.4,0.3,2.9,0.5,4.5,0.6c1.6,0.1,3.5,0.2,5.7,0.4
	c2.2,0.2,4.8,0.2,7.8,0.2c3,0,6.7,0,11.1,0c4.2,0,7.8,0,10.7,0c2.9,0,5.5-0.1,7.8-0.2c2.3-0.2,4.2-0.3,5.9-0.4
	C250.4,100.5,252.1,100.3,253.8,100z M205.3,164.8c2.5,3.3,5.5,7,9.1,11.1c3.5,4.1,7.1,7.9,10.7,11.5c5.5-3.6,10-7.4,13.5-11.3
	c3.5-3.9,6.2-7.7,7.9-11.3H205.3z"/>
</svg>
